<?xml version="1.0" standalone="no"?>
<!DOCTYPE svg PUBLIC "-//W3C//DTD SVG 20010904//EN"
 "http://www.w3.org/TR/2001/REC-SVG-20010904/DTD/svg10.dtd">
<svg version="1.0" xmlns="http://www.w3.org/2000/svg"
 width="552.000000pt" height="552.000000pt" viewBox="0 0 552.000000 552.000000"
 preserveAspectRatio="xMidYMid meet">
<metadata>
Created by potrace 1.11, written by Peter Selinger 2001-2013
</metadata>
<g transform="translate(0.000000,552.000000) scale(0.100000,-0.100000)"
fill="#000000" stroke="none">
<path d="M2557 5510 c-554 -43 -1080 -249 -1512 -590 -108 -86 -310 -284 -407
-400 -785 -937 -847 -2306 -150 -3320 185 -269 442 -527 712 -712 365 -251
761 -402 1222 -464 167 -23 509 -23 676 0 378 51 717 163 1020 337 704 404
1194 1084 1346 1867 37 193 49 318 49 532 0 344 -50 633 -165 950 -189 523
-561 1001 -1028 1322 -364 251 -768 405 -1210 462 -147 19 -414 27 -553 16z
m508 -586 c709 -97 1343 -556 1655 -1199 135 -278 198 -515 220 -824 9 -125 9
-146 -5 -167 -17 -27 -56 -32 -78 -10 -10 10 -16 52 -20 143 -37 743 -467
1405 -1136 1747 -265 136 -536 208 -834 223 -137 7 -157 14 -157 58 0 13 10
31 23 40 26 19 144 15 332 -11z m-6 -375 c576 -94 1071 -463 1331 -994 105
-215 163 -431 180 -675 9 -139 1 -170 -45 -170 -39 0 -55 25 -55 88 0 216 -72
506 -175 713 -266 531 -765 881 -1350 949 -50 5 -116 10 -147 10 -63 0 -88 16
-88 55 0 42 31 53 133 48 51 -2 148 -13 216 -24z m-103 -1049 c259 -67 475
-283 545 -547 29 -107 29 -278 1 -384 -57 -211 -199 -388 -393 -489 -115 -60
-210 -82 -349 -82 -139 0 -234 22 -349 82 -195 102 -336 276 -392 487 -29 108
-29 278 0 386 79 298 327 518 636 566 80 13 209 4 301 -19z"/>
<path d="M2695 2825 c-19 -18 -25 -35 -25 -65 0 -56 34 -90 90 -90 56 0 90 34
90 90 0 56 -34 90 -90 90 -30 0 -47 -6 -65 -25z"/>
</g>
</svg>
